<?xml version="1.0" standalone="no"?>
<!DOCTYPE svg PUBLIC "-//W3C//DTD SVG 20010904//EN"
 "http://www.w3.org/TR/2001/REC-SVG-20010904/DTD/svg10.dtd">
<svg version="1.0" xmlns="http://www.w3.org/2000/svg"
 width="640.000000pt" height="640.000000pt" viewBox="0 0 640.000000 640.000000"
 preserveAspectRatio="xMidYMid meet">
<metadata>
Created by potrace 1.14, written by Peter Selinger 2001-2017
</metadata>
<g transform="translate(0.000000,640.000000) scale(0.100000,-0.100000)"
fill="#000000" stroke="none">
<path d="M0 3200 l0 -3200 1030 2 c903 3 1032 5 1041 18 9 13 10 13 6 -2 -5
-15 6 -17 101 -17 74 -1 108 3 114 12 6 9 8 9 8 -1 0 -10 164 -12 804 -12 754
0 805 2 809 18 4 14 5 15 6 1 1 -15 41 -16 406 -18 l405 -1 -5 28 -5 27 11
-27 10 -27 830 -1 829 0 0 3200 0 3200 -3200 0 -3200 0 0 -3200z m3695 1988
c-46 -96 -97 -183 -146 -246 -21 -29 -39 -55 -39 -58 0 -4 14 -4 31 0 65 13
224 181 275 291 l24 50 0 -50 c1 -83 26 -178 76 -281 43 -89 59 -110 154 -204
119 -118 128 -126 223 -193 37 -26 73 -60 81 -75 24 -46 55 -163 69 -259 l13
-93 -30 -4 c-17 -3 -85 -8 -151 -11 -165 -8 -190 3 -236 100 -56 119 -142 188
-314 253 -62 24 -85 27 -195 27 -112 0 -133 -3 -204 -28 -176 -62 -285 -180
-337 -362 -13 -44 -24 -81 -24 -82 -1 -2 -23 4 -49 13 -47 16 -160 16 -198 -1
-14 -5 -18 -2 -18 11 0 46 -58 140 -124 202 -108 100 -214 142 -367 142 -169
0 -301 -72 -402 -219 l-16 -24 -26 59 c-51 113 -83 199 -90 242 -6 38 -3 48
30 98 141 213 330 370 665 554 63 35 128 73 144 84 32 22 31 17 -20 -54 -64
-91 -114 -225 -114 -306 0 -50 12 -56 54 -23 43 34 208 124 406 220 102 50
193 95 203 100 26 14 219 99 225 99 3 0 -56 -38 -132 -84 -242 -149 -446 -310
-446 -350 0 -16 6 -18 48 -13 109 14 493 180 657 285 133 85 217 149 275 207
30 30 55 55 57 55 1 0 -13 -33 -32 -72z m-29 -889 c165 -51 264 -162 294 -329
6 -34 8 -81 4 -104 -18 -110 -96 -262 -163 -318 -114 -96 -306 -113 -463 -40
-54 25 -76 43 -120 99 -103 129 -134 243 -104 386 33 160 134 270 286 313 72
20 188 17 266 -7z m-1390 -80 c173 -30 314 -194 314 -364 0 -63 -22 -150 -54
-213 -35 -68 -121 -159 -180 -190 -45 -24 -62 -27 -146 -27 -53 0 -111 6 -132
13 -34 12 -38 17 -38 47 0 18 -3 40 -6 49 -10 25 -27 19 -22 -8 9 -46 -7 -51
-47 -14 l-37 33 -5 141 c-6 152 -1 205 23 229 13 12 19 13 30 4 11 -9 14 -8
14 3 0 16 -29 118 -37 132 -12 19 -81 -123 -93 -190 -12 -72 -7 -109 33 -236
8 -27 13 -48 11 -48 -2 0 -15 17 -29 38 -71 108 -75 273 -10 408 42 87 129
157 225 182 96 25 105 25 186 11z m2640 -168 c40 -25 63 -74 81 -180 26 -150
-7 -366 -81 -525 -121 -262 -337 -438 -501 -407 l-43 8 -33 -76 c-86 -197
-217 -355 -439 -530 -36 -28 -81 -64 -100 -79 -105 -86 -456 -279 -587 -324
-96 -32 -206 -45 -296 -34 -44 6 -73 18 -134 59 -76 50 -296 233 -378 313
-137 135 -281 326 -349 461 -50 100 -59 128 -80 233 -13 66 -32 420 -23 420 2
0 30 -13 63 -30 68 -33 181 -54 265 -48 40 3 80 15 132 41 130 64 210 153 257
285 13 34 25 61 27 58 2 -2 -17 -90 -44 -195 l-47 -191 27 -52 c57 -112 90
-169 94 -164 9 8 -15 65 -46 111 -55 82 -58 100 -28 217 15 56 36 137 48 178
14 52 19 92 16 133 -7 81 5 91 102 85 54 -3 90 -12 126 -29 45 -23 51 -30 65
-79 26 -85 69 -161 119 -210 127 -125 232 -170 396 -170 109 0 189 19 272 66
145 81 264 260 280 422 9 92 24 99 226 108 130 6 157 5 162 -7 3 -8 2 -67 -3
-132 -8 -123 -3 -157 23 -157 20 0 78 81 106 149 41 102 139 239 193 272 40
24 92 24 132 0z m-3129 -463 c15 -27 54 -79 87 -115 l61 -66 3 -154 c2 -89 0
-153 -6 -153 -12 0 -100 113 -125 159 -62 120 -98 304 -82 427 l7 59 14 -54
c8 -30 26 -76 41 -103z m2379 -1294 l-1 -256 -120 -80 c-121 -80 -397 -249
-490 -299 -147 -79 -193 -101 -329 -154 -159 -63 -163 -63 -307 -45 -106 13
-129 29 -194 126 -34 51 -37 65 -50 209 -4 39 -13 108 -21 154 -8 46 -13 86
-11 88 2 1 30 -18 63 -43 32 -26 93 -63 134 -83 72 -34 79 -36 171 -34 140 3
319 64 492 167 43 25 80 46 83 46 5 0 220 144 279 187 82 61 182 149 241 213
31 33 57 60 58 60 1 0 2 -115 2 -256z m-1946 -84 c0 -5 -4 -10 -10 -10 -5 0
-10 5 -10 10 0 6 5 10 10 10 6 0 10 -4 10 -10z m-307 -55 c-3 -9 -8 -14 -10
-11 -3 3 -2 9 2 15 9 16 15 13 8 -4z m64 -47 c-3 -7 -5 -2 -5 12 0 14 2 19 5
13 2 -7 2 -19 0 -25z m-100 0 c-3 -8 -6 -5 -6 6 -1 11 2 17 5 13 3 -3 4 -12 1
-19z m10 -50 c-3 -8 -6 -5 -6 6 -1 11 2 17 5 13 3 -3 4 -12 1 -19z m377 -11
c4 -19 3 -26 -4 -22 -5 3 -10 18 -10 32 0 32 5 28 14 -10z m-374 -32 c0 -8 -4
-15 -10 -15 -5 0 -7 7 -4 15 4 8 8 15 10 15 2 0 4 -7 4 -15z m17 -7 c-3 -8 -6
-5 -6 6 -1 11 2 17 5 13 3 -3 4 -12 1 -19z m360 -30 c-3 -8 -6 -5 -6 6 -1 11
2 17 5 13 3 -3 4 -12 1 -19z m389 -253 c-5 -44 22 -102 92 -199 l35 -48 -32 7
c-43 9 -81 52 -131 147 -52 99 -54 147 -8 203 l33 39 8 -54 c5 -30 6 -73 3
-95z m1464 135 c0 -5 -4 -10 -10 -10 -5 0 -10 5 -10 10 0 6 5 10 10 10 6 0 10
-4 10 -10z m-50 -10 c0 -5 -4 -10 -10 -10 -5 0 -10 5 -10 10 0 6 5 10 10 10 6
0 10 -4 10 -10z m-40 -15 c0 -8 -2 -15 -4 -15 -2 0 -6 7 -10 15 -3 8 -1 15 4
15 6 0 10 -7 10 -15z m-1870 -5 c8 -5 12 -11 10 -14 -3 -2 -14 2 -24 10 -22
15 -10 19 14 4z m45 0 c3 -5 2 -10 -4 -10 -5 0 -13 5 -16 10 -3 6 -2 10 4 10
5 0 13 -4 16 -10z m-85 -10 c0 -5 -2 -10 -4 -10 -3 0 -8 5 -11 10 -3 6 -1 10
4 10 6 0 11 -4 11 -10z m1791 -13 c-10 -9 -11 -8 -5 6 3 10 9 15 12 12 3 -3 0
-11 -7 -18z m-1807 -27 c-6 -5 -24 21 -24 34 0 6 6 1 14 -10 8 -10 12 -21 10
-24z m126 21 c0 -5 -7 -11 -14 -14 -10 -4 -13 -1 -9 9 6 15 23 19 23 5z m1660
-13 c0 -6 6 -8 13 -5 8 3 14 0 14 -7 0 -7 -15 -12 -38 -11 -42 1 -55 8 -44 24
4 8 11 6 21 -4 23 -23 40 -18 19 5 -17 18 -17 20 -2 14 9 -3 17 -11 17 -16z
m-2115 -53 c-4 -38 -11 -55 -21 -55 -8 0 -14 5 -14 11 0 5 4 8 9 5 9 -6 21 40
21 82 0 14 3 23 6 19 4 -3 3 -31 -1 -62z m396 28 c13 -16 12 -17 -3 -4 -17 13
-22 21 -14 21 2 0 10 -8 17 -17z m2179 3 c0 -2 -7 -6 -15 -10 -8 -3 -15 -1
-15 4 0 6 7 10 15 10 8 0 15 -2 15 -4z m-2533 -28 c-3 -8 -6 -5 -6 6 -1 11 2
17 5 13 3 -3 4 -12 1 -19z m453 -16 c0 -1 -9 2 -20 8 -11 6 -20 15 -20 20 0 6
9 2 20 -7 11 -10 20 -19 20 -21z m27 17 c2 -17 -1 -18 -13 -8 -13 11 -10 20
11 29 1 0 1 -9 2 -21z m-777 -3 c0 -2 -7 -6 -15 -10 -8 -3 -15 -1 -15 4 0 6 7
10 15 10 8 0 15 -2 15 -4z m2230 -26 c9 -16 8 -22 -5 -26 -9 -4 -22 -1 -28 6
-10 10 -7 11 13 5 25 -8 25 -8 6 14 -11 11 -14 21 -8 21 6 0 16 -9 22 -20z
m-2330 6 c0 -2 -7 -6 -15 -10 -8 -3 -15 -1 -15 4 0 6 7 10 15 10 8 0 15 -2 15
-4z m807 -23 c6 4 16 0 22 -7 9 -10 9 -16 1 -21 -6 -4 -9 -1 -8 7 2 7 -3 12
-11 10 -16 -3 -41 16 -41 31 0 6 6 3 13 -8 8 -10 19 -15 24 -12z m-388 -30
c-1 -41 -2 -44 -8 -18 -7 28 -4 65 5 65 2 0 3 -21 3 -47z m-479 23 c0 -2 -7
-7 -16 -10 -8 -3 -12 -2 -9 4 6 10 25 14 25 6z m36 -23 c-10 -10 -19 5 -10 18
6 11 8 11 12 0 2 -7 1 -15 -2 -18z m2256 5 c-7 -7 -12 -8 -12 -2 0 14 12 26
19 19 2 -3 -1 -11 -7 -17z m840 0 c-7 -7 -12 -8 -12 -2 0 14 12 26 19 19 2 -3
-1 -11 -7 -17z m-3143 -23 c-12 -12 -17 -12 -34 1 -19 15 -19 15 8 9 19 -5 27
-3 27 6 0 7 3 9 7 5 4 -3 0 -13 -8 -21z m940 6 c7 -5 9 -11 5 -14 -5 -3 -15 1
-22 9 -14 16 -5 18 17 5z m2091 -1 c0 -5 -4 -10 -10 -10 -5 0 -10 5 -10 10 0
6 5 10 10 10 6 0 10 -4 10 -10z m-3096 -24 c-3 -9 -10 -13 -15 -10 -5 3 -3 11
4 19 15 16 19 13 11 -9z m2310 9 c-4 -8 -11 -12 -16 -9 -6 4 -5 10 3 15 19 12
19 11 13 -6z m-2279 -15 c3 -5 -1 -10 -10 -10 -9 0 -13 5 -10 10 3 6 8 10 10
10 2 0 7 -4 10 -10z m1000 0 c-3 -5 -12 -10 -18 -10 -7 0 -6 4 3 10 19 12 23
12 15 0z m-920 -10 c3 -5 1 -10 -4 -10 -6 0 -11 5 -11 10 0 6 2 10 4 10 3 0 8
-4 11 -10z m874 7 c-2 -1 -13 -9 -24 -17 -19 -14 -19 -14 -6 3 7 9 18 17 24
17 6 0 8 -1 6 -3z m2271 -29 c0 -5 -7 -3 -15 6 -8 8 -15 18 -15 22 0 3 7 1 15
-6 8 -7 15 -17 15 -22z m-2750 7 c0 -12 -19 -12 -23 0 -4 9 -1 12 9 8 7 -3 14
-7 14 -8z m1867 9 c-3 -3 -12 -4 -19 -1 -8 3 -5 6 6 6 11 1 17 -2 13 -5z
m-142 -24 c0 -7 -7 -15 -15 -17 -13 -4 -13 -3 0 6 13 10 13 12 0 22 -13 9 -13
10 0 6 8 -2 15 -10 15 -17z m-2236 -40 c-1 -13 -1 -13 -6 0 -3 8 -10 18 -16
21 -5 4 -6 13 -2 20 6 9 10 8 16 -7 4 -10 8 -26 8 -34z m301 30 c0 -5 -4 -10
-10 -10 -5 0 -10 5 -10 10 0 6 5 10 10 10 6 0 10 -4 10 -10z m840 -15 c-7 -9
-15 -13 -17 -11 -7 7 7 26 19 26 6 0 6 -6 -2 -15z m-1223 -32 c-3 -10 -5 -4
-5 12 0 17 2 24 5 18 2 -7 2 -21 0 -30z m610 -15 c-2 -13 -4 -5 -4 17 -1 22 1
32 4 23 2 -10 2 -28 0 -40z m2403 42 c0 -5 -4 -10 -10 -10 -5 0 -10 5 -10 10
0 6 5 10 10 10 6 0 10 -4 10 -10z m-745 -12 c-8 -5 -19 -7 -24 -3 -5 3 -11 1
-13 -4 -1 -5 -19 -6 -38 -3 -45 6 -19 17 45 18 32 0 41 -2 30 -8z m-1570 -48
c-4 -12 -9 -19 -12 -17 -3 3 -2 15 2 27 4 12 9 19 12 17 3 -3 2 -15 -2 -27z
m1788 10 c-3 -11 -7 -20 -9 -20 -2 0 -4 9 -4 20 0 11 4 20 9 20 5 0 7 -9 4
-20z m67 16 c0 -11 -19 -15 -25 -6 -3 5 1 10 9 10 9 0 16 -2 16 -4z m-443 -22
c-3 -3 -12 -4 -19 -1 -8 3 -5 6 6 6 11 1 17 -2 13 -5z m53 -4 c0 -5 -7 -10
-16 -10 -8 0 -12 5 -9 10 3 6 10 10 16 10 5 0 9 -4 9 -10z m-1310 -10 c0 -5
-4 -10 -10 -10 -5 0 -10 5 -10 10 0 6 5 10 10 10 6 0 10 -4 10 -10z m2120 0
c0 -5 -2 -10 -4 -10 -3 0 -8 5 -11 10 -3 6 -1 10 4 10 6 0 11 -4 11 -10z m130
1 c0 -6 -4 -13 -10 -16 -5 -3 -10 1 -10 9 0 9 5 16 10 16 6 0 10 -4 10 -9z
m-3109 -44 c-10 -9 -11 -8 -5 6 3 10 9 15 12 12 3 -3 0 -11 -7 -18z m719 -12
c0 -5 -5 -3 -10 5 -5 8 -10 20 -10 25 0 6 5 3 10 -5 5 -8 10 -19 10 -25z m670
25 c0 -5 -4 -10 -10 -10 -5 0 -10 5 -10 10 0 6 5 10 10 10 6 0 10 -4 10 -10z
m85 0 c3 -6 -1 -7 -9 -4 -18 7 -21 14 -7 14 6 0 13 -4 16 -10z m50 0 c-3 -5
-11 -10 -16 -10 -6 0 -7 5 -4 10 3 6 11 10 16 10 6 0 7 -4 4 -10z m1025 0 c0
-5 -5 -10 -11 -10 -5 0 -7 5 -4 10 3 6 8 10 11 10 2 0 4 -4 4 -10z m-1915 -10
c-3 -5 -12 -10 -18 -10 -7 0 -6 4 3 10 19 12 23 12 15 0z m993 1 c6 -1 12 -5
12 -10 0 -6 -9 -9 -19 -8 -11 0 -17 5 -14 10 3 5 -3 7 -13 3 -11 -3 -25 -2
-33 3 -12 8 -5 8 67 2z m-941 -23 c-3 -8 -6 -5 -6 6 -1 11 2 17 5 13 3 -3 4
-12 1 -19z m2663 7 c0 -8 -2 -15 -4 -15 -2 0 -6 7 -10 15 -3 8 -1 15 4 15 6 0
10 -7 10 -15z m-1670 -5 c0 -5 -4 -10 -10 -10 -5 0 -10 5 -10 10 0 6 5 10 10
10 6 0 10 -4 10 -10z m-1070 -4 c0 -3 -4 -8 -10 -11 -5 -3 -10 -1 -10 4 0 6 5
11 10 11 6 0 10 -2 10 -4z m55 -45 c5 -16 4 -21 -4 -17 -6 4 -11 17 -12 29 0
12 -3 16 -6 10 -5 -13 -33 -18 -33 -7 0 4 8 13 18 20 19 14 23 9 37 -35z
m2935 29 c0 -11 -4 -20 -9 -20 -14 0 -23 18 -16 30 10 17 25 11 25 -10z m-420
0 c0 -5 -4 -10 -10 -10 -5 0 -10 5 -10 10 0 6 5 10 10 10 6 0 10 -4 10 -10z
m-2453 -22 c-3 -8 -6 -5 -6 6 -1 11 2 17 5 13 3 -3 4 -12 1 -19z m1090 16 c-3
-3 -12 -4 -19 -1 -8 3 -5 6 6 6 11 1 17 -2 13 -5z m1583 -10 c0 -8 -4 -12 -10
-9 -5 3 -10 10 -10 16 0 5 5 9 10 9 6 0 10 -7 10 -16z m-2686 -20 c3 -8 2 -12
-4 -9 -6 3 -10 10 -10 16 0 14 7 11 14 -7z m876 6 c18 -12 2 -12 -25 0 -13 6
-15 9 -5 9 8 0 22 -4 30 -9z m1756 -12 c-3 -13 -5 -25 -5 -28 -1 -3 -5 2 -11
10 -5 9 -5 19 2 27 15 19 18 16 14 -9z m484 12 c0 -5 -4 -10 -9 -10 -6 0 -13
5 -16 10 -3 6 1 10 9 10 9 0 16 -4 16 -10z m-147 -7 c-7 -2 -21 -2 -30 0 -10
3 -4 5 12 5 17 0 24 -2 18 -5z m-2496 -25 c-3 -8 -6 -5 -6 6 -1 11 2 17 5 13
3 -3 4 -12 1 -19z m1854 -11 c-16 -16 -25 -1 -10 16 8 8 16 11 18 5 2 -5 -2
-15 -8 -21z m69 7 c0 -8 -5 -12 -10 -9 -6 4 -8 11 -5 16 9 14 15 11 15 -7z
m280 1 c-7 -9 -15 -13 -19 -10 -3 3 1 10 9 15 21 14 24 12 10 -5z m-1725 -6
c11 -17 -1 -21 -15 -4 -8 9 -8 15 -2 15 6 0 14 -5 17 -11z m-1598 -21 c-3 -8
-6 -5 -6 6 -1 11 2 17 5 13 3 -3 4 -12 1 -19z m2533 18 c0 -3 -4 -8 -10 -11
-5 -3 -10 -1 -10 4 0 6 5 11 10 11 6 0 10 -2 10 -4z m846 -8 c4 -7 3 -10 -1
-5 -5 4 -20 -3 -34 -15 l-26 -23 24 28 c28 31 28 31 37 15z m-2767 -48 c0 -9
-4 -8 -9 5 -5 11 -9 27 -9 35 0 9 4 8 9 -5 5 -11 9 -27 9 -35z m2657 2 c-15
-15 -15 -15 -4 10 7 15 15 23 17 17 2 -6 -4 -18 -13 -27z m-526 18 c0 -5 -5
-10 -11 -10 -5 0 -7 5 -4 10 3 6 8 10 11 10 2 0 4 -4 4 -10z m510 1 c0 -5 -6
-14 -14 -20 -12 -10 -13 -8 -9 8 5 21 23 30 23 12z m-3288 -33 c-7 -7 -12 -8
-12 -2 0 14 12 26 19 19 2 -3 -1 -11 -7 -17z m31 2 c-3 -12 -8 -19 -11 -16 -5
6 5 36 12 36 2 0 2 -9 -1 -20z m697 16 c0 -3 -4 -8 -10 -11 -5 -3 -10 -1 -10
4 0 6 5 11 10 11 6 0 10 -2 10 -4z m51 -10 c5 3 9 1 9 -5 0 -5 -4 -13 -10 -16
-5 -3 -10 -4 -10 -1 0 2 -2 10 -3 18 -2 7 -2 10 0 5 3 -4 9 -5 14 -1z m1416
-8 c-3 -8 -6 -5 -6 6 -1 11 2 17 5 13 3 -3 4 -12 1 -19z m-1452 -17 c-6 -21
-25 -29 -25 -11 0 6 5 10 10 10 6 0 10 8 10 17 0 9 3 14 6 10 3 -3 3 -15 -1
-26z m-686 -31 c0 -9 -4 -8 -9 5 -5 11 -9 27 -9 35 0 9 4 8 9 -5 5 -11 9 -27
9 -35z m3289 36 c-10 -7 -15 -15 -13 -18 9 -9 -14 -58 -27 -58 -10 0 -10 2 0
9 7 4 14 19 16 32 3 31 14 49 29 49 7 0 4 -6 -5 -14z m-2682 -23 c-10 -10 -19
5 -10 18 6 11 8 11 12 0 2 -7 1 -15 -2 -18z m2607 12 c-3 -9 -8 -14 -10 -11
-3 3 -2 9 2 15 9 16 15 13 8 -4z m-1872 -17 c11 -21 11 -22 -4 -9 -10 7 -17
17 -17 22 0 15 9 10 21 -13z m-758 -8 c3 -11 1 -18 -4 -14 -5 3 -9 12 -9 20 0
20 7 17 13 -6z m44 -2 c-3 -8 -6 -5 -6 6 -1 11 2 17 5 13 3 -3 4 -12 1 -19z
m73 7 c0 -8 -4 -15 -10 -15 -5 0 -7 7 -4 15 4 8 8 15 10 15 2 0 4 -7 4 -15z
m2166 -12 c-10 -10 -19 5 -10 18 6 11 8 11 12 0 2 -7 1 -15 -2 -18z m-2912 1
c3 -8 2 -12 -4 -9 -6 3 -10 10 -10 16 0 14 7 11 14 -7z m3933 0 c-3 -3 -12 -4
-19 -1 -8 3 -5 6 6 6 11 1 17 -2 13 -5z m-1960 -26 c-3 -8 -6 -5 -6 6 -1 11 2
17 5 13 3 -3 4 -12 1 -19z m1773 18 c0 -3 -4 -8 -10 -11 -5 -3 -10 -1 -10 4 0
6 5 11 10 11 6 0 10 -2 10 -4z m-3718 -48 c-6 -6 -12 -4 -16 7 -3 9 -2 13 4
10 6 -3 10 0 11 7 0 10 2 10 6 0 3 -8 1 -18 -5 -24z m3178 28 c0 -2 -6 -9 -14
-15 -11 -9 -16 -9 -22 0 -4 7 -3 9 4 5 6 -3 13 -2 17 4 6 10 15 14 15 6z
m-2040 -16 c0 -5 -4 -10 -10 -10 -5 0 -10 5 -10 10 0 6 5 10 10 10 6 0 10 -4
10 -10z m1788 -8 c2 -7 -3 -12 -12 -12 -9 0 -16 7 -16 16 0 17 22 14 28 -4z
m52 4 c0 -3 -4 -8 -10 -11 -5 -3 -10 -1 -10 4 0 6 5 11 10 11 6 0 10 -2 10 -4z
m277 -23 c-9 -9 -20 -13 -24 -9 -4 4 -1 11 7 16 25 16 35 11 17 -7z m-3246
-16 c-10 -9 -11 -8 -5 6 3 10 9 15 12 12 3 -3 0 -11 -7 -18z m659 13 c0 -5 -5
-10 -11 -10 -5 0 -7 5 -4 10 3 6 8 10 11 10 2 0 4 -4 4 -10z m2130 0 c0 -5 -4
-10 -10 -10 -5 0 -10 5 -10 10 0 6 5 10 10 10 6 0 10 -4 10 -10z m-2000 -19
c0 -17 -18 -21 -24 -6 -3 9 0 15 9 15 8 0 15 -4 15 -9z m2285 -9 c-3 -3 -11 0
-18 7 -9 10 -8 11 6 5 10 -3 15 -9 12 -12z m95 -3 c-7 -11 -14 -18 -17 -15 -3
3 0 12 7 21 18 21 23 19 10 -6z m755 10 c11 -16 1 -19 -13 -3 -7 8 -8 14 -3
14 5 0 13 -5 16 -11z m-925 -14 c0 -8 -7 -15 -15 -15 -16 0 -20 12 -8 23 11
12 23 8 23 -8z m-2993 -17 c-3 -8 -6 -5 -6 6 -1 11 2 17 5 13 3 -3 4 -12 1
-19z m2933 2 c0 -11 -4 -20 -9 -20 -5 0 -7 9 -4 20 3 11 7 20 9 20 2 0 4 -9 4
-20z m260 10 c0 -5 -4 -10 -10 -10 -5 0 -10 5 -10 10 0 6 5 10 10 10 6 0 10
-4 10 -10z m260 -10 c0 -11 -2 -20 -4 -20 -2 0 -6 9 -9 20 -3 11 -1 20 4 20 5
0 9 -9 9 -20z m-3240 0 c0 -5 -4 -10 -10 -10 -5 0 -10 5 -10 10 0 6 5 10 10
10 6 0 10 -4 10 -10z m2844 -6 c3 -8 2 -12 -4 -9 -6 3 -10 10 -10 16 0 14 7
11 14 -7z m1041 6 c3 -5 1 -10 -4 -10 -6 0 -11 5 -11 10 0 6 2 10 4 10 3 0 8
-4 11 -10z m-3303 -15 c4 -5 8 -17 8 -25 0 -13 -1 -13 -10 0 -9 13 -10 13 -10
0 -1 -11 -4 -10 -15 4 -8 11 -15 23 -15 27 0 10 34 6 42 -6z m3097 -16 c-24
-15 -29 -10 -11 11 10 12 18 16 21 9 2 -6 -3 -15 -10 -20z m-1962 -11 c-3 -8
-6 -5 -6 6 -1 11 2 17 5 13 3 -3 4 -12 1 -19z m348 12 c3 -5 -1 -10 -10 -10
-9 0 -13 5 -10 10 3 6 8 10 10 10 2 0 7 -4 10 -10z m295 0 c0 -5 -7 -10 -16
-10 -8 0 -12 5 -9 10 3 6 10 10 16 10 5 0 9 -4 9 -10z m440 0 c0 -5 -4 -10
-10 -10 -5 0 -10 5 -10 10 0 6 5 10 10 10 6 0 10 -4 10 -10z m-823 -6 c-3 -3
-12 -4 -19 -1 -8 3 -5 6 6 6 11 1 17 -2 13 -5z m-1327 -72 c0 -3 -7 3 -15 14
-8 10 -14 26 -15 34 0 8 7 2 15 -14 8 -15 15 -31 15 -34z m2118 44 c-7 -8 -15
-12 -17 -11 -5 6 10 25 20 25 5 0 4 -6 -3 -14z m42 10 c0 -2 -8 -10 -17 -17
-16 -13 -17 -12 -4 4 13 16 21 21 21 13z m-2980 -39 c0 -5 -4 -5 -10 -2 -5 3
-10 14 -10 23 0 15 2 15 10 2 5 -8 10 -19 10 -23z m705 23 c3 -5 1 -10 -4 -10
-6 0 -11 5 -11 10 0 6 2 10 4 10 3 0 8 -4 11 -10z m2315 -15 c-7 -9 -15 -13
-17 -11 -6 6 20 36 26 30 2 -2 -2 -10 -9 -19z m-900 5 c0 -5 -2 -10 -4 -10 -3
0 -8 5 -11 10 -3 6 -1 10 4 10 6 0 11 -4 11 -10z m925 -20 c-24 -26 -32 -18
-9 9 10 11 20 18 23 16 2 -3 -4 -14 -14 -25z m-2249 -22 c23 -45 12 -43 -13 3
-12 21 -17 37 -12 33 5 -3 16 -19 25 -36z m2196 -14 c-9 -16 -10 -14 -9 8 1
15 6 23 11 18 4 -4 4 -16 -2 -26z m-2785 10 c-3 -3 -12 -4 -19 -1 -8 3 -5 6 6
6 11 1 17 -2 13 -5z m493 -9 c-7 -9 -15 -13 -19 -10 -3 3 1 10 9 15 21 14 24
12 10 -5z m40 5 c0 -5 -2 -10 -4 -10 -3 0 -8 5 -11 10 -3 6 -1 10 4 10 6 0 11
-4 11 -10z m887 4 c-3 -3 -12 -4 -19 -1 -8 3 -5 6 6 6 11 1 17 -2 13 -5z
m1180 -16 c-3 -8 -6 -5 -6 6 -1 11 2 17 5 13 3 -3 4 -12 1 -19z m44 -1 c-10
-9 -11 -8 -5 6 3 10 9 15 12 12 3 -3 0 -11 -7 -18z m-2011 -23 c0 -8 -4 -14
-8 -14 -4 0 -8 9 -8 19 0 11 4 17 8 15 4 -3 8 -12 8 -20z m-806 -6 c10 -39 7
-44 -9 -14 -17 33 -18 36 -6 36 5 0 11 -10 15 -22z m691 13 c3 -5 1 -12 -5
-16 -5 -3 -10 1 -10 9 0 18 6 21 15 7z m50 -17 c9 -15 12 -23 6 -20 -11 7 -35
46 -28 46 3 0 12 -12 22 -26z m1955 22 c0 -3 -4 -8 -10 -11 -5 -3 -10 -1 -10
4 0 6 5 11 10 11 6 0 10 -2 10 -4z m140 -10 c0 -2 -7 -7 -16 -10 -8 -3 -12 -2
-9 4 6 10 25 14 25 6z m-2460 -21 c0 -8 -4 -15 -10 -15 -5 0 -10 7 -10 15 0 8
5 15 10 15 6 0 10 -7 10 -15z m2413 -2 c-9 -23 -46 -54 -53 -44 -3 4 -14 13
-25 19 -17 9 -14 10 19 8 31 -3 40 0 43 15 3 11 9 19 14 19 5 0 5 -8 2 -17z
m100 -4 c5 -3 1 -9 -8 -12 -9 -4 -13 -3 -10 3 3 6 1 10 -5 10 -6 0 -13 -7 -16
-15 -4 -8 -11 -15 -17 -15 -6 0 0 11 13 25 13 14 26 22 29 18 3 -4 10 -11 14
-14z m-556 -21 c-3 -7 -5 -2 -5 12 0 14 2 19 5 13 2 -7 2 -19 0 -25z m-1625 0
c-7 -7 -12 -8 -12 -2 0 14 12 26 19 19 2 -3 -1 -11 -7 -17z m36 -27 c-7 -9
-13 -17 -14 -19 -1 -1 -1 11 0 27 1 22 4 27 14 19 10 -8 10 -14 0 -27z m92 9
c12 -23 12 -24 -3 -11 -10 7 -17 20 -17 29 0 18 3 16 20 -18z m52 8 c-7 -7
-12 -8 -12 -2 0 14 12 26 19 19 2 -3 -1 -11 -7 -17z m775 0 c-3 -8 -6 -5 -6 6
-1 11 2 17 5 13 3 -3 4 -12 1 -19z m1473 18 c0 -3 -4 -8 -10 -11 -5 -3 -10 -1
-10 4 0 6 5 11 10 11 6 0 10 -2 10 -4z m-3101 -49 c1 -5 -3 -5 -9 -2 -5 3 -10
16 -9 28 0 21 1 21 9 2 5 -11 9 -24 9 -28z m911 23 c0 -5 -2 -10 -4 -10 -3 0
-8 5 -11 10 -3 6 -1 10 4 10 6 0 11 -4 11 -10z m1437 -27 c-3 -3 -11 -2 -17 2
-8 5 -7 11 2 22 12 15 13 14 16 -1 2 -10 1 -20 -1 -23z m1398 28 c3 -5 1 -12
-5 -16 -5 -3 -10 1 -10 9 0 18 6 21 15 7z m79 -21 c-6 -6 -10 -3 -10 10 0 13
4 16 10 10 7 -7 7 -13 0 -20z m-444 4 c0 -8 -5 -12 -10 -9 -6 4 -8 11 -5 16 9
14 15 11 15 -7z m-722 -3 c10 -6 10 -10 -3 -21 -8 -7 -18 -10 -22 -6 -3 3 -1
6 5 6 19 0 14 18 -5 23 -13 3 -14 5 -3 6 8 0 21 -3 28 -8z m-1898 -11 c0 -5
-4 -10 -10 -10 -5 0 -10 5 -10 10 0 6 5 10 10 10 6 0 10 -4 10 -10z m887 -12
c-3 -8 -6 -5 -6 6 -1 11 2 17 5 13 3 -3 4 -12 1 -19z m1113 7 c11 -13 10 -14
-4 -9 -9 3 -16 10 -16 15 0 13 6 11 20 -6z m-1605 -5 c3 -5 1 -10 -4 -10 -6 0
-11 5 -11 10 0 6 2 10 4 10 3 0 8 -4 11 -10z m1115 0 c0 -5 -5 -10 -11 -10 -5
0 -7 5 -4 10 3 6 8 10 11 10 2 0 4 -4 4 -10z m557 -6 c-3 -3 -12 -4 -19 -1 -8
3 -5 6 6 6 11 1 17 -2 13 -5z m218 -3 c3 -5 1 -12 -5 -16 -5 -3 -10 1 -10 9 0
18 6 21 15 7z m-3020 -27 c0 -25 -10 -23 -17 4 -3 10 0 19 6 19 6 0 11 -10 11
-23z m2182 4 c-3 -8 -6 -5 -6 6 -1 11 2 17 5 13 3 -3 4 -12 1 -19z m388 12 c3
-5 -1 -10 -10 -10 -9 0 -13 5 -10 10 3 6 8 10 10 10 2 0 7 -4 10 -10z m1123
-11 c-10 -5 -18 -17 -18 -24 0 -8 -7 -15 -16 -15 -14 0 -15 2 -3 18 18 22 31
32 44 32 6 -1 2 -5 -7 -11z m-2897 -41 c15 -28 5 -21 -21 15 -15 20 -17 27 -6
18 9 -8 22 -23 27 -33z m564 32 c-3 -5 -10 -10 -16 -10 -5 0 -9 5 -9 10 0 6 7
10 16 10 8 0 12 -4 9 -10z m1300 -1 c11 -16 1 -19 -13 -3 -7 8 -8 14 -3 14 5
0 13 -5 16 -11z m885 -9 c0 -5 -4 -10 -10 -10 -5 0 -10 5 -10 10 0 6 5 10 10
10 6 0 10 -4 10 -10z m-3512 -29 c-1 -16 -5 -28 -9 -26 -6 5 0 55 7 55 3 0 3
-13 2 -29z m47 -41 c-10 -9 -15 -10 -15 -3 0 7 4 14 9 17 4 3 7 18 5 33 -4 28
-4 28 6 -2 7 -23 6 -33 -5 -45z m1085 39 c0 -5 -4 -9 -10 -9 -5 0 -10 7 -10
16 0 8 5 12 10 9 6 -3 10 -10 10 -16z m1320 17 c0 -3 -4 -8 -10 -11 -5 -3 -10
-1 -10 4 0 6 5 11 10 11 6 0 10 -2 10 -4z m110 0 c0 -3 -4 -8 -10 -11 -5 -3
-10 -1 -10 4 0 6 5 11 10 11 6 0 10 -2 10 -4z m-985 -16 c3 -5 1 -10 -4 -10
-6 0 -11 5 -11 10 0 6 2 10 4 10 3 0 8 -4 11 -10z m2010 -9 c-3 -6 -14 -10
-23 -10 -15 1 -15 2 1 6 9 2 17 9 17 15 0 6 3 9 6 5 3 -3 3 -10 -1 -16z
m-1185 -6 c-7 -8 -26 -14 -44 -13 l-31 1 33 4 c17 2 32 8 32 14 0 5 5 9 11 9
8 0 8 -5 -1 -15z m925 5 c3 -5 2 -10 -4 -10 -5 0 -13 5 -16 10 -3 6 -2 10 4
10 5 0 13 -4 16 -10z m-2585 -10 c0 -5 -2 -10 -4 -10 -3 0 -8 5 -11 10 -3 6
-1 10 4 10 6 0 11 -4 11 -10z m190 0 c0 -5 -4 -10 -10 -10 -5 0 -10 5 -10 10
0 6 5 10 10 10 6 0 10 -4 10 -10z m1325 0 c-3 -5 -12 -10 -18 -10 -7 0 -6 4 3
10 19 12 23 12 15 0z m-1018 -26 c-5 -5 -57 13 -57 20 0 3 14 0 31 -6 16 -6
28 -12 26 -14z m1063 16 c0 -5 -4 -10 -10 -10 -5 0 -10 5 -10 10 0 6 5 10 10
10 6 0 10 -4 10 -10z m-1503 -42 c-3 -7 -5 -2 -5 12 0 14 2 19 5 13 2 -7 2
-19 0 -25z m89 11 c19 -22 19 -22 -3 -10 -13 6 -23 16 -23 21 0 15 5 12 26
-11z m284 11 c0 -5 -4 -10 -10 -10 -5 0 -10 5 -10 10 0 6 5 10 10 10 6 0 10
-4 10 -10z m1305 -1 c16 -8 15 -8 -8 -4 -18 4 -33 0 -43 -10 -9 -8 -21 -15
-27 -15 -7 0 -1 9 13 20 28 22 36 23 65 9z m1105 1 c0 -5 -10 -15 -22 -21 -23
-12 -23 -12 -4 10 21 23 26 26 26 11z m-1285 -10 c-3 -5 -11 -10 -16 -10 -6 0
-7 5 -4 10 3 6 11 10 16 10 6 0 7 -4 4 -10z m239 -5 c3 -9 0 -15 -9 -15 -8 0
-15 7 -15 15 0 8 4 15 9 15 5 0 11 -7 15 -15z m-1219 -5 c3 -6 -1 -7 -9 -4
-18 7 -21 14 -7 14 6 0 13 -4 16 -10z m-115 -4 c0 -2 -7 -7 -16 -10 -8 -3 -12
-2 -9 4 6 10 25 14 25 6z m-973 -38 c-3 -8 -6 -5 -6 6 -1 11 2 17 5 13 3 -3 4
-12 1 -19z m697 -4 c7 -19 2 -18 -19 6 -16 17 -16 20 -3 15 9 -4 19 -13 22
-21z m321 16 c3 -5 2 -10 -4 -10 -5 0 -13 5 -16 10 -3 6 -2 10 4 10 5 0 13 -4
16 -10z m140 0 c3 -5 2 -10 -4 -10 -5 0 -13 5 -16 10 -3 6 -2 10 4 10 5 0 13
-4 16 -10z m40 0 c3 -6 -1 -7 -9 -4 -18 7 -21 14 -7 14 6 0 13 -4 16 -10z
m743 -5 c2 -1 -3 -5 -10 -8 -8 -2 -23 2 -33 10 -19 13 -18 14 10 7 17 -4 31
-8 33 -9z m765 -3 c-12 -12 -19 -14 -21 -5 -2 6 -13 14 -25 16 -12 2 -3 5 21
6 40 1 41 0 25 -17z m567 8 c0 -5 -4 -10 -10 -10 -5 0 -10 5 -10 10 0 6 5 10
10 10 6 0 10 -4 10 -10z m-1510 -10 c0 -5 -7 -7 -15 -4 -8 4 -15 8 -15 10 0 2
7 4 15 4 8 0 15 -4 15 -10z m-458 -32 c-7 -7 -19 -7 -39 0 -26 10 -26 10 -5
11 14 1 21 5 16 12 -4 7 1 7 16 -1 15 -8 19 -15 12 -22z m225 0 c-3 -7 -5 -2
-5 12 0 14 2 19 5 13 2 -7 2 -19 0 -25z m-479 6 c-9 -10 -21 -13 -29 -8 -9 5
-8 9 7 15 31 12 39 10 22 -7z m447 6 c3 -5 -1 -10 -9 -10 -9 0 -16 5 -16 10 0
6 4 10 9 10 6 0 13 -4 16 -10z m152 4 c-3 -3 -12 -4 -19 -1 -8 3 -5 6 6 6 11
1 17 -2 13 -5z m1372 -16 c11 -30 4 -36 -14 -12 -17 23 -19 34 -5 34 6 0 14
-10 19 -22z m-2386 -8 c-5 -19 -23 -29 -23 -12 0 7 20 32 26 32 1 0 0 -9 -3
-20z m1147 4 c0 -2 -17 -4 -37 -3 -33 1 -35 2 -13 8 23 7 50 4 50 -5z m207 10
c-3 -3 -12 -4 -19 -1 -8 3 -5 6 6 6 11 1 17 -2 13 -5z m76 -1 c-7 -2 -19 -2
-25 0 -7 3 -2 5 12 5 14 0 19 -2 13 -5z m1187 -8 c-7 -8 -17 -15 -23 -15 -6 0
-2 7 9 15 25 19 30 19 14 0z m-3273 -17 c-3 -8 -6 -5 -6 6 -1 11 2 17 5 13 3
-3 4 -12 1 -19z m1098 12 c-3 -5 -11 -10 -16 -10 -6 0 -7 5 -4 10 3 6 11 10
16 10 6 0 7 -4 4 -10z m318 3 c-7 -2 -19 -2 -25 0 -7 3 -2 5 12 5 14 0 19 -2
13 -5z m-703 -37 c7 -9 8 -16 2 -16 -5 0 -13 7 -16 16 -3 9 -12 14 -19 11 -8
-3 -14 1 -14 8 0 16 26 5 47 -19z m418 20 c-7 -8 -17 -12 -22 -9 -4 3 -2 9 5
14 22 13 31 11 17 -5z m87 -4 c-3 -3 -11 0 -18 7 -9 10 -8 11 6 5 10 -3 15 -9
12 -12z m715 8 c8 -5 11 -10 5 -10 -5 0 -17 5 -25 10 -8 5 -10 10 -5 10 6 0
17 -5 25 -10z m-883 -6 c-3 -3 -12 -4 -19 -1 -8 3 -5 6 6 6 11 1 17 -2 13 -5z
m1030 0 c-3 -3 -12 -4 -19 -1 -8 3 -5 6 6 6 11 1 17 -2 13 -5z m-1281 -36 c16
-18 20 -26 9 -18 -28 21 -45 38 -45 44 0 11 6 6 36 -26z m-856 14 c0 -5 -7
-17 -15 -28 -14 -18 -14 -17 -4 9 12 27 19 34 19 19z m1870 -2 c0 -5 -10 -10
-22 -9 -22 0 -22 1 -3 9 11 5 21 9 23 9 1 1 2 -3 2 -9z m1360 -11 c0 -14 -17
-10 -23 5 -4 10 -1 13 9 9 7 -3 14 -9 14 -14z m-1410 -5 c0 -2 -9 -4 -21 -4
-11 0 -18 4 -14 10 5 8 35 3 35 -6z m-333 0 c-3 -3 -12 -4 -19 -1 -8 3 -5 6 6
6 11 1 17 -2 13 -5z m56 -1 c-7 -2 -21 -2 -30 0 -10 3 -4 5 12 5 17 0 24 -2
18 -5z m124 1 c-3 -3 -12 -4 -19 -1 -8 3 -5 6 6 6 11 1 17 -2 13 -5z m256 -1
c-7 -2 -19 -2 -25 0 -7 3 -2 5 12 5 14 0 19 -2 13 -5z m-1152 -20 c13 -16 12
-17 -3 -4 -17 13 -22 21 -14 21 2 0 10 -8 17 -17z m48 -17 c-3 -3 -11 5 -18
17 -13 21 -12 21 5 5 10 -10 16 -20 13 -22z m631 15 c0 -21 -13 -41 -26 -41
-8 0 -14 5 -14 10 0 6 7 10 15 10 21 0 19 18 -2 23 -14 4 -12 5 5 6 12 0 22
-3 22 -8z m470 -7 c0 -2 -9 -4 -21 -4 -11 0 -18 4 -14 10 5 8 35 3 35 -6z
m-666 -10 c3 -8 2 -12 -4 -9 -6 3 -10 10 -10 16 0 14 7 11 14 -7z m133 10 c-3
-3 -12 -4 -19 -1 -8 3 -5 6 6 6 11 1 17 -2 13 -5z m136 -1 c-7 -2 -21 -2 -30
0 -10 3 -4 5 12 5 17 0 24 -2 18 -5z m57 3 c0 -11 -19 -15 -25 -6 -3 5 1 10 9
10 9 0 16 -2 16 -4z m-1544 -30 c11 3 15 2 9 -3 -5 -4 -13 -12 -16 -16 -3 -4
-16 5 -30 20 -18 21 -19 24 -3 10 13 -10 29 -15 40 -11z m1704 16 c0 -5 -13
-7 -30 -4 -16 2 -30 6 -30 8 0 2 14 4 30 4 17 0 30 -4 30 -8z m-780 -8 c0 0
-8 -8 -18 -17 -16 -15 -18 -15 -18 1 0 10 8 18 18 18 10 0 18 -1 18 -2z m1584
-9 c-4 -8 -8 -15 -10 -15 -2 0 -4 7 -4 15 0 8 4 15 10 15 5 0 7 -7 4 -15z
m-2064 -5 c0 -5 -4 -10 -10 -10 -5 0 -10 5 -10 10 0 6 5 10 10 10 6 0 10 -4
10 -10z m2700 6 c0 -3 -4 -8 -10 -11 -5 -3 -10 -1 -10 4 0 6 5 11 10 11 6 0
10 -2 10 -4z m-2320 -10 c0 -3 -4 -8 -10 -11 -5 -3 -10 -1 -10 4 0 6 5 11 10
11 6 0 10 -2 10 -4z m-780 -41 c0 -5 -5 -3 -10 5 -5 8 -10 20 -10 25 0 6 5 3
10 -5 5 -8 10 -19 10 -25z m300 8 c0 -22 -2 -25 -10 -13 -13 20 -13 40 0 40 6
0 10 -12 10 -27z m110 -8 c0 -9 -6 -12 -15 -9 -8 4 -15 10 -15 15 0 5 7 9 15
9 8 0 15 -7 15 -15z m2620 5 c-20 -13 -33 -13 -25 0 3 6 14 10 23 10 15 0 15
-2 2 -10z m-2210 -4 c0 -2 -8 -10 -17 -17 -16 -13 -17 -12 -4 4 13 16 21 21
21 13z m17 -21 c0 -8 -4 -15 -9 -15 -10 0 -11 14 -1 23 9 10 10 9 10 -8z
m1226 8 c-7 -2 -21 -2 -30 0 -10 3 -4 5 12 5 17 0 24 -2 18 -5z m903 -4 c3 -6
1 -16 -6 -22 -10 -9 -12 -8 -6 7 5 14 2 17 -9 12 -8 -3 -15 -1 -15 4 0 14 27
13 36 -1z m-2889 -25 c2 -13 1 -15 -4 -4 -3 8 -11 19 -17 23 -7 6 -6 7 4 4 8
-2 16 -12 17 -23z m383 -1 c0 -20 -3 -24 -11 -16 -7 7 -9 19 -6 27 10 24 17
19 17 -11z m1537 5 c-3 -8 -6 -5 -6 6 -1 11 2 17 5 13 3 -3 4 -12 1 -19z m703
-3 c0 -14 -4 -25 -10 -25 -5 0 -10 11 -10 25 0 14 5 25 10 25 6 0 10 -11 10
-25z m60 15 c0 -5 -4 -10 -10 -10 -5 0 -10 5 -10 10 0 6 5 10 10 10 6 0 10 -4
10 -10z m-2720 -45 c13 -14 20 -25 16 -25 -4 0 -18 11 -32 25 -14 14 -21 25
-16 25 5 0 19 -11 32 -25z m2890 5 c-8 -6 -22 -10 -30 -10 -8 0 -4 6 10 13 27
15 44 12 20 -3z m-203 -22 c-3 -7 -5 -2 -5 12 0 14 2 19 5 13 2 -7 2 -19 0
-25z m50 10 c-3 -8 -6 -5 -6 6 -1 11 2 17 5 13 3 -3 4 -12 1 -19z m73 -28 c8
-5 11 -10 5 -10 -5 0 -17 5 -25 10 -8 5 -10 10 -5 10 6 0 17 -5 25 -10z m-663
-16 c-3 -3 -12 -4 -19 -1 -8 3 -5 6 6 6 11 1 17 -2 13 -5z m753 -30 c0 -3 -7
-1 -15 6 -8 7 -15 17 -15 22 0 5 7 3 15 -6 8 -8 15 -18 15 -22z m-2787 -4 c10
-16 16 -30 14 -30 -2 0 -13 14 -25 30 -13 17 -19 30 -14 30 4 0 16 -13 25 -30z
m2522 20 c3 -5 1 -10 -4 -10 -6 0 -11 5 -11 10 0 6 2 10 4 10 3 0 8 -4 11 -10z
m-1885 -31 c0 -5 -4 -9 -10 -9 -5 0 -10 7 -10 16 0 8 5 12 10 9 6 -3 10 -10
10 -16z m1985 11 c-3 -5 -11 -10 -16 -10 -6 0 -7 5 -4 10 3 6 11 10 16 10 6 0
7 -4 4 -10z m-2635 -20 c0 -5 -2 -10 -4 -10 -3 0 -8 5 -11 10 -3 6 -1 10 4 10
6 0 11 -4 11 -10z m2510 0 c0 -5 -5 -10 -11 -10 -5 0 -7 5 -4 10 3 6 8 10 11
10 2 0 4 -4 4 -10z m74 -6 c3 -8 2 -12 -4 -9 -6 3 -10 10 -10 16 0 14 7 11 14
-7z m126 2 c0 -2 -7 -7 -16 -10 -8 -3 -12 -2 -9 4 6 10 25 14 25 6z m-2640
-27 c0 -6 -4 -7 -10 -4 -5 3 -10 11 -10 16 0 6 5 7 10 4 6 -3 10 -11 10 -16z
m2495 11 c3 -6 -1 -7 -9 -4 -18 7 -21 14 -7 14 6 0 13 -4 16 -10z m-1745 -16
c0 -8 -5 -12 -10 -9 -6 4 -8 11 -5 16 9 14 15 11 15 -7z m1920 6 c0 -5 -8 -10
-17 -10 -15 0 -16 2 -3 10 19 12 20 12 20 0z m110 0 c0 -5 -2 -10 -4 -10 -3 0
-8 5 -11 10 -3 6 -1 10 4 10 6 0 11 -4 11 -10z m-583 -37 c-3 -10 -5 -4 -5 12
0 17 2 24 5 18 2 -7 2 -21 0 -30z m-2182 -2 c-3 -12 -11 -19 -16 -16 -5 4 -5
14 2 26 13 26 23 18 14 -10z m2464 25 c-15 -13 -49 -25 -49 -17 0 5 8 12 18
14 24 6 36 8 31 3z m101 0 c0 -3 -4 -8 -10 -11 -5 -3 -10 -1 -10 4 0 6 5 11
10 11 6 0 10 -2 10 -4z m30 -6 c0 -5 -4 -10 -10 -10 -5 0 -10 5 -10 10 0 6 5
10 10 10 6 0 10 -4 10 -10z m-363 -22 c-3 -8 -6 -5 -6 6 -1 11 2 17 5 13 3 -3
4 -12 1 -19z m737 -4 c3 -8 2 -12 -4 -9 -6 3 -10 10 -10 16 0 14 7 11 14 -7z
m-2943 -18 c-10 -12 -7 -18 15 -33 20 -13 29 -14 32 -5 2 6 8 12 14 12 6 0 6
-6 -2 -15 -17 -20 -32 -19 -59 6 -17 16 -20 24 -10 35 6 8 14 14 16 14 3 0 0
-6 -6 -14z m64 3 c11 -17 -1 -21 -15 -4 -8 9 -8 15 -2 15 6 0 14 -5 17 -11z
m225 7 c0 -3 -4 -8 -10 -11 -5 -3 -10 -1 -10 4 0 6 5 11 10 11 6 0 10 -2 10
-4z m2034 -17 c4 6 13 11 19 11 7 0 -3 -10 -21 -21 -18 -12 -36 -19 -39 -15
-4 3 -1 6 5 6 7 0 12 8 12 18 0 13 2 14 9 3 6 -9 11 -10 15 -2z m121 1 c-3 -5
-12 -10 -18 -10 -7 0 -6 4 3 10 19 12 23 12 15 0z m-2405 -10 c0 -5 -4 -10
-10 -10 -5 0 -10 5 -10 10 0 6 5 10 10 10 6 0 10 -4 10 -10z m357 -47 c-3 -10
-5 -4 -5 12 0 17 2 24 5 18 2 -7 2 -21 0 -30z m2050 31 c-3 -3 -12 -4 -19 -1
-8 3 -5 6 6 6 11 1 17 -2 13 -5z m-387 -24 c0 -5 -4 -10 -10 -10 -5 0 -10 5
-10 10 0 6 5 10 10 10 6 0 10 -4 10 -10z m315 0 c3 -5 1 -10 -4 -10 -6 0 -11
5 -11 10 0 6 2 10 4 10 3 0 8 -4 11 -10z m570 1 c3 -5 1 -12 -5 -16 -5 -3 -10
1 -10 9 0 18 6 21 15 7z m-711 -21 c-6 -6 -20 -6 -39 0 l-30 10 33 -5 c20 -3
32 0 32 7 0 6 3 8 7 5 4 -4 2 -12 -3 -17z m-1384 0 c0 -5 -4 -10 -10 -10 -5 0
-10 5 -10 10 0 6 5 10 10 10 6 0 10 -4 10 -10z m1125 0 c3 -5 1 -10 -4 -10 -6
0 -11 5 -11 10 0 6 2 10 4 10 3 0 8 -4 11 -10z m845 6 c0 -3 -4 -8 -10 -11 -5
-3 -10 -1 -10 4 0 6 5 11 10 11 6 0 10 -2 10 -4z m-685 -33 c18 -14 18 -15 2
-9 -10 3 -23 6 -28 6 -5 0 -9 5 -9 10 0 14 12 12 35 -7z m165 10 c-8 -3 -18
-11 -22 -17 -4 -6 -10 -7 -15 -3 -9 10 16 27 37 26 13 -1 13 -1 0 -6z m-2190
-23 c0 -5 -4 -10 -10 -10 -5 0 -10 5 -10 10 0 6 5 10 10 10 6 0 10 -4 10 -10z
m2123 -7 c3 -5 -6 -9 -20 -10 -19 -1 -22 1 -12 8 17 11 26 11 32 2z m77 3 c0
-2 -7 -7 -16 -10 -8 -3 -12 -2 -9 4 6 10 25 14 25 6z"/>
<path d="M3520 4674 c-198 -37 -382 -96 -452 -145 -64 -46 -18 -56 154 -35
284 33 409 40 529 28 132 -14 254 -41 346 -78 49 -20 68 -23 76 -15 36 36
-110 169 -237 217 -64 24 -87 27 -231 29 -88 2 -171 2 -185 -1z"/>
<path d="M2086 4589 c-127 -21 -307 -145 -341 -234 -30 -78 -4 -84 93 -21 169
110 266 140 452 141 74 0 168 -4 208 -9 70 -8 72 -7 72 13 0 17 -16 29 -72 56
-40 19 -100 41 -133 50 -63 16 -197 18 -279 4z"/>
<path d="M3523 4240 c-51 -11 -112 -41 -137 -69 -25 -28 -11 -27 28 2 95 71
259 77 358 12 49 -32 69 -32 32 0 -56 48 -189 75 -281 55z"/>
<path d="M3530 4155 c-25 -8 -64 -30 -87 -50 -44 -37 -93 -127 -92 -167 0 -16
8 -7 25 32 48 105 114 150 230 158 62 4 79 1 130 -22 82 -38 129 -97 148 -188
4 -16 11 -28 16 -28 29 0 -13 138 -57 191 -65 76 -200 108 -313 74z"/>
<path d="M3569 4081 c-50 -10 -85 -39 -110 -90 -47 -94 -33 -194 37 -262 34
-32 38 -34 109 -34 59 0 79 4 102 21 94 70 106 244 21 320 -22 20 -100 55
-116 53 -4 -1 -23 -4 -43 -8z m181 -181 c24 -24 25 -38 4 -68 -21 -31 -62 -29
-74 4 -6 14 -10 30 -10 35 0 12 37 49 50 49 6 0 19 -9 30 -20z"/>
<path d="M3553 3628 c-2 -5 25 -8 61 -8 36 0 66 4 66 9 0 11 -120 9 -127 -1z"/>
<path d="M2183 4144 c-38 -14 -99 -62 -89 -71 2 -2 24 10 48 27 85 60 209 48
299 -28 27 -23 39 -29 39 -19 0 26 -69 74 -129 91 -69 19 -112 19 -168 0z"/>
<path d="M2190 4083 c-45 -19 -76 -48 -111 -102 -24 -37 -29 -56 -29 -108 0
-35 4 -63 10 -63 6 0 10 18 10 40 0 55 20 98 66 147 46 48 105 68 177 59 81
-9 132 -51 191 -157 27 -50 31 -19 4 38 -60 129 -205 195 -318 146z"/>
<path d="M2234 4012 c-48 -31 -77 -103 -71 -177 2 -34 12 -75 21 -92 23 -46
79 -85 129 -90 39 -5 48 -1 81 27 51 46 66 79 66 151 0 113 -58 188 -149 196
-33 3 -55 -1 -77 -15z m202 -157 c15 -23 15 -27 0 -50 -28 -42 -86 -23 -86 29
0 49 58 63 86 21z"/>
<path d="M2263 3614 c3 -3 26 -6 52 -6 26 0 49 3 53 6 3 3 -21 6 -53 6 -32 0
-56 -3 -52 -6z"/>
<path d="M4790 3864 c-63 -54 -137 -184 -182 -321 -15 -46 -18 -67 -10 -75 7
-7 14 1 22 32 17 63 83 209 123 272 20 30 53 69 74 86 26 21 33 31 21 32 -9 0
-31 -12 -48 -26z"/>
<path d="M4690 3630 c-32 -24 -19 -38 15 -16 81 53 77 -122 -6 -247 -30 -45
-97 -107 -117 -107 -5 0 -15 -7 -22 -15 -21 -26 22 -18 66 11 91 62 156 177
162 285 4 58 1 70 -17 88 -26 26 -49 26 -81 1z"/>
<path d="M2837 3229 c23 -12 54 -32 69 -45 14 -14 29 -23 32 -20 9 10 -41 58
-75 72 -51 22 -73 15 -26 -7z"/>
<path d="M2711 2652 c-22 -41 -6 -96 38 -136 19 -18 45 -21 222 -28 221 -9
252 -4 257 42 4 37 -59 94 -126 114 -31 9 -119 18 -216 22 -159 7 -164 6 -175
-14z"/>
<path d="M2900 2311 c0 -9 131 -22 140 -14 2 2 -2 8 -10 13 -19 12 -130 13
-130 1z"/>
</g>
</svg>
